<svg id="Layer_1" data-name="Layer 1" xmlns="http://www.w3.org/2000/svg" viewBox="0 0 32 29.49"><defs><style>.cls-1{fill:#c77775;}</style></defs><path class="cls-1" d="M406.28,458.66a6.43,6.43,0,0,1-6.48,6.42,6.52,6.52,0,0,1-6.4-6.52,6.67,6.67,0,0,1,6.53-6.46A6.43,6.43,0,0,1,406.28,458.66Z" transform="translate(-380 -452.1)"/><path class="cls-1" d="M405.58,468.71a6.4,6.4,0,0,1,6.42,6.42,6.6,6.6,0,0,1-6.51,6.45,6.5,6.5,0,0,1-6.4-6.53A6.31,6.31,0,0,1,405.58,468.71Z" transform="translate(-380 -452.1)"/><path class="cls-1" d="M386.33,476.83a6.2,6.2,0,0,1-6.33-6.5,6.37,6.37,0,0,1,6.32-6.36,6.43,6.43,0,1,1,0,12.86Z" transform="translate(-380 -452.1)"/></svg>