<svg version="1.0" xmlns="http://www.w3.org/2000/svg" xmlns:xlink="http://www.w3.org/1999/xlink"
	 viewBox="0 0 100 100" enable-background="new 0 0 100 100" xml:space="preserve">
	
<svg xmlns="http://www.w3.org/2000/svg" xmlns:xlink="http://www.w3.org/1999/xlink" version="1.1" width="100" height="100" viewBox="0 0 2000 2000" x="0" y="0" shape-rendering="crispEdges"><defs/><rect x="0" y="0" width="2000" height="2000" fill="#ffffff"/><svg viewBox="0 0 4 4" x="840" y="200" width="64" height="64" shape-rendering="auto"><circle fill="#a63c3c" cx="2" cy="2" r="1.75"/></svg><svg viewBox="0 0 4 4" x="1160" y="200" width="64" height="64" shape-rendering="auto"><circle fill="#a63c3c" cx="2" cy="2" r="1.75"/></svg><svg viewBox="0 0 4 4" x="712" y="264" width="64" height="64" shape-rendering="auto"><path fill="#a63c3c" d="M2,.25a1.75,1.75,0,0,0,0,3.5H4V.25Z"/></svg><svg viewBox="0 0 4 4" x="776" y="264" width="64" height="64" shape-rendering="auto"><rect fill="#a63c3c" y="0.25" width="4" height="3.5"/></svg><svg viewBox="0 0 4 4" x="840" y="264" width="64" height="64" shape-rendering="auto"><path fill="#a63c3c" d="M2,3.75A1.75,1.75,0,0,0,2,.25H0v3.5Z"/></svg><svg viewBox="0 0 4 4" x="1032" y="264" width="64" height="64" shape-rendering="auto"><path fill="#a63c3c" d="M2,.25a1.75,1.75,0,0,0,0,3.5H4V.25Z"/></svg><svg viewBox="0 0 4 4" x="1096" y="264" width="64" height="64" shape-rendering="auto"><path fill="#a63c3c" d="M2,3.75A1.75,1.75,0,0,0,2,.25H0v3.5Z"/></svg><svg viewBox="0 0 4 4" x="1224" y="264" width="64" height="64" shape-rendering="auto"><circle fill="#a63c3c" cx="2" cy="2" r="1.75"/></svg><svg viewBox="0 0 4 4" x="712" y="328" width="64" height="64" shape-rendering="auto"><circle fill="#a63c3c" cx="2" cy="2" r="1.75"/></svg><svg viewBox="0 0 4 4" x="1160" y="328" width="64" height="64" shape-rendering="auto"><path fill="#a63c3c" d="M2,.25a1.75,1.75,0,0,0,0,3.5H4V.25Z"/></svg><svg viewBox="0 0 4 4" x="1224" y="328" width="64" height="64" shape-rendering="auto"><path fill="#a63c3c" d="M2,3.75A1.75,1.75,0,0,0,2,.25H0v3.5Z"/></svg><svg viewBox="0 0 4 4" x="776" y="392" width="64" height="64" shape-rendering="auto"><circle fill="#a63c3c" cx="2" cy="2" r="1.75"/></svg><svg viewBox="0 0 4 4" x="968" y="392" width="64" height="64" shape-rendering="auto"><circle fill="#a63c3c" cx="2" cy="2" r="1.75"/></svg><svg viewBox="0 0 4 4" x="1160" y="392" width="64" height="64" shape-rendering="auto"><path fill="#a63c3c" d="M2,.25a1.75,1.75,0,0,0,0,3.5H4V.25Z"/></svg><svg viewBox="0 0 4 4" x="1224" y="392" width="64" height="64" shape-rendering="auto"><path fill="#a63c3c" d="M2,3.75A1.75,1.75,0,0,0,2,.25H0v3.5Z"/></svg><svg viewBox="0 0 4 4" x="712" y="456" width="64" height="64" shape-rendering="auto"><path fill="#a63c3c" d="M2,.25a1.75,1.75,0,0,0,0,3.5H4V.25Z"/></svg><svg viewBox="0 0 4 4" x="776" y="456" width="64" height="64" shape-rendering="auto"><rect fill="#a63c3c" y="0.25" width="4" height="3.5"/></svg><svg viewBox="0 0 4 4" x="840" y="456" width="64" height="64" shape-rendering="auto"><path fill="#a63c3c" d="M2,3.75A1.75,1.75,0,0,0,2,.25H0v3.5Z"/></svg><svg viewBox="0 0 4 4" x="968" y="456" width="64" height="64" shape-rendering="auto"><path fill="#a63c3c" d="M2,.25a1.75,1.75,0,0,0,0,3.5H4V.25Z"/></svg><svg viewBox="0 0 4 4" x="1032" y="456" width="64" height="64" shape-rendering="auto"><rect fill="#a63c3c" y="0.25" width="4" height="3.5"/></svg><svg viewBox="0 0 4 4" x="1096" y="456" width="64" height="64" shape-rendering="auto"><path fill="#a63c3c" d="M2,3.75A1.75,1.75,0,0,0,2,.25H0v3.5Z"/></svg><svg viewBox="0 0 4 4" x="1224" y="456" width="64" height="64" shape-rendering="auto"><circle fill="#a63c3c" cx="2" cy="2" r="1.75"/></svg><svg viewBox="0 0 4 4" x="712" y="520" width="64" height="64" shape-rendering="auto"><circle fill="#a63c3c" cx="2" cy="2" r="1.75"/></svg><svg viewBox="0 0 4 4" x="840" y="520" width="64" height="64" shape-rendering="auto"><circle fill="#a63c3c" cx="2" cy="2" r="1.75"/></svg><svg viewBox="0 0 4 4" x="968" y="520" width="64" height="64" shape-rendering="auto"><circle fill="#a63c3c" cx="2" cy="2" r="1.75"/></svg><svg viewBox="0 0 4 4" x="1160" y="520" width="64" height="64" shape-rendering="auto"><circle fill="#a63c3c" cx="2" cy="2" r="1.75"/></svg><svg viewBox="0 0 4 4" x="712" y="584" width="64" height="64" shape-rendering="auto"><circle fill="#a63c3c" cx="2" cy="2" r="1.75"/></svg><svg viewBox="0 0 4 4" x="840" y="584" width="64" height="64" shape-rendering="auto"><circle fill="#a63c3c" cx="2" cy="2" r="1.75"/></svg><svg viewBox="0 0 4 4" x="968" y="584" width="64" height="64" shape-rendering="auto"><circle fill="#a63c3c" cx="2" cy="2" r="1.75"/></svg><svg viewBox="0 0 4 4" x="1096" y="584" width="64" height="64" shape-rendering="auto"><circle fill="#a63c3c" cx="2" cy="2" r="1.75"/></svg><svg viewBox="0 0 4 4" x="1224" y="584" width="64" height="64" shape-rendering="auto"><circle fill="#a63c3c" cx="2" cy="2" r="1.75"/></svg><svg viewBox="0 0 4 4" x="712" y="648" width="64" height="64" shape-rendering="auto"><circle fill="#a63c3c" cx="2" cy="2" r="1.75"/></svg><svg viewBox="0 0 4 4" x="840" y="648" width="64" height="64" shape-rendering="auto"><path fill="#a63c3c" d="M2,.25a1.75,1.75,0,0,0,0,3.5H4V.25Z"/></svg><svg viewBox="0 0 4 4" x="904" y="648" width="64" height="64" shape-rendering="auto"><path fill="#a63c3c" d="M2,3.75A1.75,1.75,0,0,0,2,.25H0v3.5Z"/></svg><svg viewBox="0 0 4 4" x="200" y="712" width="64" height="64" shape-rendering="auto"><path fill="#a63c3c" d="M2,.25a1.75,1.75,0,0,0,0,3.5H4V.25Z"/></svg><svg viewBox="0 0 4 4" x="264" y="712" width="64" height="64" shape-rendering="auto"><path fill="#a63c3c" d="M2,3.75A1.75,1.75,0,0,0,2,.25H0v3.5Z"/></svg><svg viewBox="0 0 4 4" x="392" y="712" width="64" height="64" shape-rendering="auto"><circle fill="#a63c3c" cx="2" cy="2" r="1.75"/></svg><svg viewBox="0 0 4 4" x="584" y="712" width="64" height="64" shape-rendering="auto"><path fill="#a63c3c" d="M2,.25a1.75,1.75,0,0,0,0,3.5H4V.25Z"/></svg><svg viewBox="0 0 4 4" x="648" y="712" width="64" height="64" shape-rendering="auto"><path fill="#a63c3c" d="M2,3.75A1.75,1.75,0,0,0,2,.25H0v3.5Z"/></svg><svg viewBox="0 0 4 4" x="904" y="712" width="64" height="64" shape-rendering="auto"><path fill="#a63c3c" d="M2,.25a1.75,1.75,0,0,0,0,3.5H4V.25Z"/></svg><svg viewBox="0 0 4 4" x="968" y="712" width="64" height="64" shape-rendering="auto"><rect fill="#a63c3c" y="0.25" width="4" height="3.5"/></svg><svg viewBox="0 0 4 4" x="1032" y="712" width="64" height="64" shape-rendering="auto"><path fill="#a63c3c" d="M2,3.75A1.75,1.75,0,0,0,2,.25H0v3.5Z"/></svg><svg viewBox="0 0 4 4" x="1224" y="712" width="64" height="64" shape-rendering="auto"><circle fill="#a63c3c" cx="2" cy="2" r="1.75"/></svg><svg viewBox="0 0 4 4" x="1352" y="712" width="64" height="64" shape-rendering="auto"><path fill="#a63c3c" d="M2,.25a1.75,1.75,0,0,0,0,3.5H4V.25Z"/></svg><svg viewBox="0 0 4 4" x="1416" y="712" width="64" height="64" shape-rendering="auto"><rect fill="#a63c3c" y="0.25" width="4" height="3.5"/></svg><svg viewBox="0 0 4 4" x="1480" y="712" width="64" height="64" shape-rendering="auto"><path fill="#a63c3c" d="M2,3.75A1.75,1.75,0,0,0,2,.25H0v3.5Z"/></svg><svg viewBox="0 0 4 4" x="1608" y="712" width="64" height="64" shape-rendering="auto"><path fill="#a63c3c" d="M2,.25a1.75,1.75,0,0,0,0,3.5H4V.25Z"/></svg><svg viewBox="0 0 4 4" x="1672" y="712" width="64" height="64" shape-rendering="auto"><path fill="#a63c3c" d="M2,3.75A1.75,1.75,0,0,0,2,.25H0v3.5Z"/></svg><svg viewBox="0 0 4 4" x="200" y="776" width="64" height="64" shape-rendering="auto"><circle fill="#a63c3c" cx="2" cy="2" r="1.75"/></svg><svg viewBox="0 0 4 4" x="328" y="776" width="64" height="64" shape-rendering="auto"><path fill="#a63c3c" d="M2,.25a1.75,1.75,0,0,0,0,3.5H4V.25Z"/></svg><svg viewBox="0 0 4 4" x="392" y="776" width="64" height="64" shape-rendering="auto"><path fill="#a63c3c" d="M2,3.75A1.75,1.75,0,0,0,2,.25H0v3.5Z"/></svg><svg viewBox="0 0 4 4" x="520" y="776" width="64" height="64" shape-rendering="auto"><circle fill="#a63c3c" cx="2" cy="2" r="1.75"/></svg><svg viewBox="0 0 4 4" x="712" y="776" width="64" height="64" shape-rendering="auto"><path fill="#a63c3c" d="M2,.25a1.75,1.75,0,0,0,0,3.5H4V.25Z"/></svg><svg viewBox="0 0 4 4" x="776" y="776" width="64" height="64" shape-rendering="auto"><path fill="#a63c3c" d="M2,3.75A1.75,1.75,0,0,0,2,.25H0v3.5Z"/></svg><svg viewBox="0 0 4 4" x="904" y="776" width="64" height="64" shape-rendering="auto"><path fill="#a63c3c" d="M2,.25a1.75,1.75,0,0,0,0,3.5H4V.25Z"/></svg><svg viewBox="0 0 4 4" x="968" y="776" width="64" height="64" shape-rendering="auto"><rect fill="#a63c3c" y="0.25" width="4" height="3.5"/></svg><svg viewBox="0 0 4 4" x="1032" y="776" width="64" height="64" shape-rendering="auto"><rect fill="#a63c3c" y="0.25" width="4" height="3.5"/></svg><svg viewBox="0 0 4 4" x="1096" y="776" width="64" height="64" shape-rendering="auto"><rect fill="#a63c3c" y="0.25" width="4" height="3.5"/></svg><svg viewBox="0 0 4 4" x="1160" y="776" width="64" height="64" shape-rendering="auto"><rect fill="#a63c3c" y="0.25" width="4" height="3.5"/></svg><svg viewBox="0 0 4 4" x="1224" y="776" width="64" height="64" shape-rendering="auto"><path fill="#a63c3c" d="M2,3.75A1.75,1.75,0,0,0,2,.25H0v3.5Z"/></svg><svg viewBox="0 0 4 4" x="1352" y="776" width="64" height="64" shape-rendering="auto"><circle fill="#a63c3c" cx="2" cy="2" r="1.75"/></svg><svg viewBox="0 0 4 4" x="1480" y="776" width="64" height="64" shape-rendering="auto"><circle fill="#a63c3c" cx="2" cy="2" r="1.75"/></svg><svg viewBox="0 0 4 4" x="1672" y="776" width="64" height="64" shape-rendering="auto"><circle fill="#a63c3c" cx="2" cy="2" r="1.75"/></svg><svg viewBox="0 0 4 4" x="264" y="840" width="64" height="64" shape-rendering="auto"><path fill="#a63c3c" d="M2,.25a1.75,1.75,0,0,0,0,3.5H4V.25Z"/></svg><svg viewBox="0 0 4 4" x="328" y="840" width="64" height="64" shape-rendering="auto"><rect fill="#a63c3c" y="0.25" width="4" height="3.5"/></svg><svg viewBox="0 0 4 4" x="392" y="840" width="64" height="64" shape-rendering="auto"><path fill="#a63c3c" d="M2,3.75A1.75,1.75,0,0,0,2,.25H0v3.5Z"/></svg><svg viewBox="0 0 4 4" x="520" y="840" width="64" height="64" shape-rendering="auto"><path fill="#a63c3c" d="M2,.25a1.75,1.75,0,0,0,0,3.5H4V.25Z"/></svg><svg viewBox="0 0 4 4" x="584" y="840" width="64" height="64" shape-rendering="auto"><path fill="#a63c3c" d="M2,3.75A1.75,1.75,0,0,0,2,.25H0v3.5Z"/></svg><svg viewBox="0 0 4 4" x="712" y="840" width="64" height="64" shape-rendering="auto"><circle fill="#a63c3c" cx="2" cy="2" r="1.75"/></svg><svg viewBox="0 0 4 4" x="904" y="840" width="64" height="64" shape-rendering="auto"><path fill="#a63c3c" d="M2,.25a1.75,1.75,0,0,0,0,3.5H4V.25Z"/></svg><svg viewBox="0 0 4 4" x="968" y="840" width="64" height="64" shape-rendering="auto"><path fill="#a63c3c" d="M2,3.75A1.75,1.75,0,0,0,2,.25H0v3.5Z"/></svg><svg viewBox="0 0 4 4" x="1288" y="840" width="64" height="64" shape-rendering="auto"><path fill="#a63c3c" d="M2,.25a1.75,1.75,0,0,0,0,3.5H4V.25Z"/></svg><svg viewBox="0 0 4 4" x="1352" y="840" width="64" height="64" shape-rendering="auto"><rect fill="#a63c3c" y="0.25" width="4" height="3.5"/></svg><svg viewBox="0 0 4 4" x="1416" y="840" width="64" height="64" shape-rendering="auto"><path fill="#a63c3c" d="M2,3.75A1.75,1.75,0,0,0,2,.25H0v3.5Z"/></svg><svg viewBox="0 0 4 4" x="1544" y="840" width="64" height="64" shape-rendering="auto"><path fill="#a63c3c" d="M2,.25a1.75,1.75,0,0,0,0,3.5H4V.25Z"/></svg><svg viewBox="0 0 4 4" x="1608" y="840" width="64" height="64" shape-rendering="auto"><path fill="#a63c3c" d="M2,3.75A1.75,1.75,0,0,0,2,.25H0v3.5Z"/></svg><svg viewBox="0 0 4 4" x="200" y="904" width="64" height="64" shape-rendering="auto"><circle fill="#a63c3c" cx="2" cy="2" r="1.75"/></svg><svg viewBox="0 0 4 4" x="328" y="904" width="64" height="64" shape-rendering="auto"><path fill="#a63c3c" d="M2,.25a1.75,1.75,0,0,0,0,3.5H4V.25Z"/></svg><svg viewBox="0 0 4 4" x="392" y="904" width="64" height="64" shape-rendering="auto"><path fill="#a63c3c" d="M2,3.75A1.75,1.75,0,0,0,2,.25H0v3.5Z"/></svg><svg viewBox="0 0 4 4" x="520" y="904" width="64" height="64" shape-rendering="auto"><circle fill="#a63c3c" cx="2" cy="2" r="1.75"/></svg><svg viewBox="0 0 4 4" x="776" y="904" width="64" height="64" shape-rendering="auto"><path fill="#a63c3c" d="M2,.25a1.75,1.75,0,0,0,0,3.5H4V.25Z"/></svg><svg viewBox="0 0 4 4" x="840" y="904" width="64" height="64" shape-rendering="auto"><rect fill="#a63c3c" y="0.25" width="4" height="3.5"/></svg><svg viewBox="0 0 4 4" x="904" y="904" width="64" height="64" shape-rendering="auto"><rect fill="#a63c3c" y="0.25" width="4" height="3.5"/></svg><svg viewBox="0 0 4 4" x="968" y="904" width="64" height="64" shape-rendering="auto"><rect fill="#a63c3c" y="0.25" width="4" height="3.5"/></svg><svg viewBox="0 0 4 4" x="1032" y="904" width="64" height="64" shape-rendering="auto"><rect fill="#a63c3c" y="0.25" width="4" height="3.5"/></svg><svg viewBox="0 0 4 4" x="1096" y="904" width="64" height="64" shape-rendering="auto"><path fill="#a63c3c" d="M2,3.75A1.75,1.75,0,0,0,2,.25H0v3.5Z"/></svg><svg viewBox="0 0 4 4" x="1224" y="904" width="64" height="64" shape-rendering="auto"><path fill="#a63c3c" d="M2,.25a1.75,1.75,0,0,0,0,3.5H4V.25Z"/></svg><svg viewBox="0 0 4 4" x="1288" y="904" width="64" height="64" shape-rendering="auto"><rect fill="#a63c3c" y="0.25" width="4" height="3.5"/></svg><svg viewBox="0 0 4 4" x="1352" y="904" width="64" height="64" shape-rendering="auto"><rect fill="#a63c3c" y="0.25" width="4" height="3.5"/></svg><svg viewBox="0 0 4 4" x="1416" y="904" width="64" height="64" shape-rendering="auto"><rect fill="#a63c3c" y="0.25" width="4" height="3.5"/></svg><svg viewBox="0 0 4 4" x="1480" y="904" width="64" height="64" shape-rendering="auto"><path fill="#a63c3c" d="M2,3.75A1.75,1.75,0,0,0,2,.25H0v3.5Z"/></svg><svg viewBox="0 0 4 4" x="1736" y="904" width="64" height="64" shape-rendering="auto"><circle fill="#a63c3c" cx="2" cy="2" r="1.75"/></svg><svg viewBox="0 0 4 4" x="328" y="968" width="64" height="64" shape-rendering="auto"><circle fill="#a63c3c" cx="2" cy="2" r="1.75"/></svg><svg viewBox="0 0 4 4" x="456" y="968" width="64" height="64" shape-rendering="auto"><circle fill="#a63c3c" cx="2" cy="2" r="1.75"/></svg><svg viewBox="0 0 4 4" x="584" y="968" width="64" height="64" shape-rendering="auto"><circle fill="#a63c3c" cx="2" cy="2" r="1.75"/></svg><svg viewBox="0 0 4 4" x="840" y="968" width="64" height="64" shape-rendering="auto"><path fill="#a63c3c" d="M2,.25a1.75,1.75,0,0,0,0,3.5H4V.25Z"/></svg><svg viewBox="0 0 4 4" x="904" y="968" width="64" height="64" shape-rendering="auto"><path fill="#a63c3c" d="M2,3.75A1.75,1.75,0,0,0,2,.25H0v3.5Z"/></svg><svg viewBox="0 0 4 4" x="1032" y="968" width="64" height="64" shape-rendering="auto"><circle fill="#a63c3c" cx="2" cy="2" r="1.75"/></svg><svg viewBox="0 0 4 4" x="1224" y="968" width="64" height="64" shape-rendering="auto"><circle fill="#a63c3c" cx="2" cy="2" r="1.75"/></svg><svg viewBox="0 0 4 4" x="1352" y="968" width="64" height="64" shape-rendering="auto"><path fill="#a63c3c" d="M2,.25a1.75,1.75,0,0,0,0,3.5H4V.25Z"/></svg><svg viewBox="0 0 4 4" x="1416" y="968" width="64" height="64" shape-rendering="auto"><path fill="#a63c3c" d="M2,3.75A1.75,1.75,0,0,0,2,.25H0v3.5Z"/></svg><svg viewBox="0 0 4 4" x="1608" y="968" width="64" height="64" shape-rendering="auto"><path fill="#a63c3c" d="M2,.25a1.75,1.75,0,0,0,0,3.5H4V.25Z"/></svg><svg viewBox="0 0 4 4" x="1672" y="968" width="64" height="64" shape-rendering="auto"><rect fill="#a63c3c" y="0.25" width="4" height="3.5"/></svg><svg viewBox="0 0 4 4" x="1736" y="968" width="64" height="64" shape-rendering="auto"><path fill="#a63c3c" d="M2,3.75A1.75,1.75,0,0,0,2,.25H0v3.5Z"/></svg><svg viewBox="0 0 4 4" x="264" y="1032" width="64" height="64" shape-rendering="auto"><path fill="#a63c3c" d="M2,.25a1.75,1.75,0,0,0,0,3.5H4V.25Z"/></svg><svg viewBox="0 0 4 4" x="328" y="1032" width="64" height="64" shape-rendering="auto"><rect fill="#a63c3c" y="0.25" width="4" height="3.5"/></svg><svg viewBox="0 0 4 4" x="392" y="1032" width="64" height="64" shape-rendering="auto"><path fill="#a63c3c" d="M2,3.75A1.75,1.75,0,0,0,2,.25H0v3.5Z"/></svg><svg viewBox="0 0 4 4" x="520" y="1032" width="64" height="64" shape-rendering="auto"><circle fill="#a63c3c" cx="2" cy="2" r="1.75"/></svg><svg viewBox="0 0 4 4" x="904" y="1032" width="64" height="64" shape-rendering="auto"><circle fill="#a63c3c" cx="2" cy="2" r="1.75"/></svg><svg viewBox="0 0 4 4" x="1096" y="1032" width="64" height="64" shape-rendering="auto"><circle fill="#a63c3c" cx="2" cy="2" r="1.75"/></svg><svg viewBox="0 0 4 4" x="1416" y="1032" width="64" height="64" shape-rendering="auto"><path fill="#a63c3c" d="M2,.25a1.75,1.75,0,0,0,0,3.5H4V.25Z"/></svg><svg viewBox="0 0 4 4" x="1480" y="1032" width="64" height="64" shape-rendering="auto"><path fill="#a63c3c" d="M2,3.75A1.75,1.75,0,0,0,2,.25H0v3.5Z"/></svg><svg viewBox="0 0 4 4" x="1608" y="1032" width="64" height="64" shape-rendering="auto"><path fill="#a63c3c" d="M2,.25a1.75,1.75,0,0,0,0,3.5H4V.25Z"/></svg><svg viewBox="0 0 4 4" x="1672" y="1032" width="64" height="64" shape-rendering="auto"><rect fill="#a63c3c" y="0.25" width="4" height="3.5"/></svg><svg viewBox="0 0 4 4" x="1736" y="1032" width="64" height="64" shape-rendering="auto"><path fill="#a63c3c" d="M2,3.75A1.75,1.75,0,0,0,2,.25H0v3.5Z"/></svg><svg viewBox="0 0 4 4" x="200" y="1096" width="64" height="64" shape-rendering="auto"><circle fill="#a63c3c" cx="2" cy="2" r="1.75"/></svg><svg viewBox="0 0 4 4" x="392" y="1096" width="64" height="64" shape-rendering="auto"><path fill="#a63c3c" d="M2,.25a1.75,1.75,0,0,0,0,3.5H4V.25Z"/></svg><svg viewBox="0 0 4 4" x="456" y="1096" width="64" height="64" shape-rendering="auto"><path fill="#a63c3c" d="M2,3.75A1.75,1.75,0,0,0,2,.25H0v3.5Z"/></svg><svg viewBox="0 0 4 4" x="584" y="1096" width="64" height="64" shape-rendering="auto"><path fill="#a63c3c" d="M2,.25a1.75,1.75,0,0,0,0,3.5H4V.25Z"/></svg><svg viewBox="0 0 4 4" x="648" y="1096" width="64" height="64" shape-rendering="auto"><path fill="#a63c3c" d="M2,3.75A1.75,1.75,0,0,0,2,.25H0v3.5Z"/></svg><svg viewBox="0 0 4 4" x="776" y="1096" width="64" height="64" shape-rendering="auto"><path fill="#a63c3c" d="M2,.25a1.75,1.75,0,0,0,0,3.5H4V.25Z"/></svg><svg viewBox="0 0 4 4" x="840" y="1096" width="64" height="64" shape-rendering="auto"><rect fill="#a63c3c" y="0.25" width="4" height="3.5"/></svg><svg viewBox="0 0 4 4" x="904" y="1096" width="64" height="64" shape-rendering="auto"><path fill="#a63c3c" d="M2,3.75A1.75,1.75,0,0,0,2,.25H0v3.5Z"/></svg><svg viewBox="0 0 4 4" x="1096" y="1096" width="64" height="64" shape-rendering="auto"><path fill="#a63c3c" d="M2,.25a1.75,1.75,0,0,0,0,3.5H4V.25Z"/></svg><svg viewBox="0 0 4 4" x="1160" y="1096" width="64" height="64" shape-rendering="auto"><rect fill="#a63c3c" y="0.25" width="4" height="3.5"/></svg><svg viewBox="0 0 4 4" x="1224" y="1096" width="64" height="64" shape-rendering="auto"><path fill="#a63c3c" d="M2,3.75A1.75,1.75,0,0,0,2,.25H0v3.5Z"/></svg><svg viewBox="0 0 4 4" x="1352" y="1096" width="64" height="64" shape-rendering="auto"><circle fill="#a63c3c" cx="2" cy="2" r="1.75"/></svg><svg viewBox="0 0 4 4" x="1480" y="1096" width="64" height="64" shape-rendering="auto"><path fill="#a63c3c" d="M2,.25a1.75,1.75,0,0,0,0,3.5H4V.25Z"/></svg><svg viewBox="0 0 4 4" x="1544" y="1096" width="64" height="64" shape-rendering="auto"><path fill="#a63c3c" d="M2,3.75A1.75,1.75,0,0,0,2,.25H0v3.5Z"/></svg><svg viewBox="0 0 4 4" x="1736" y="1096" width="64" height="64" shape-rendering="auto"><circle fill="#a63c3c" cx="2" cy="2" r="1.75"/></svg><svg viewBox="0 0 4 4" x="264" y="1160" width="64" height="64" shape-rendering="auto"><path fill="#a63c3c" d="M2,.25a1.75,1.75,0,0,0,0,3.5H4V.25Z"/></svg><svg viewBox="0 0 4 4" x="328" y="1160" width="64" height="64" shape-rendering="auto"><path fill="#a63c3c" d="M2,3.75A1.75,1.75,0,0,0,2,.25H0v3.5Z"/></svg><svg viewBox="0 0 4 4" x="776" y="1160" width="64" height="64" shape-rendering="auto"><path fill="#a63c3c" d="M2,.25a1.75,1.75,0,0,0,0,3.5H4V.25Z"/></svg><svg viewBox="0 0 4 4" x="840" y="1160" width="64" height="64" shape-rendering="auto"><rect fill="#a63c3c" y="0.25" width="4" height="3.5"/></svg><svg viewBox="0 0 4 4" x="904" y="1160" width="64" height="64" shape-rendering="auto"><path fill="#a63c3c" d="M2,3.75A1.75,1.75,0,0,0,2,.25H0v3.5Z"/></svg><svg viewBox="0 0 4 4" x="1032" y="1160" width="64" height="64" shape-rendering="auto"><path fill="#a63c3c" d="M2,.25a1.75,1.75,0,0,0,0,3.5H4V.25Z"/></svg><svg viewBox="0 0 4 4" x="1096" y="1160" width="64" height="64" shape-rendering="auto"><path fill="#a63c3c" d="M2,3.75A1.75,1.75,0,0,0,2,.25H0v3.5Z"/></svg><svg viewBox="0 0 4 4" x="1352" y="1160" width="64" height="64" shape-rendering="auto"><path fill="#a63c3c" d="M2,.25a1.75,1.75,0,0,0,0,3.5H4V.25Z"/></svg><svg viewBox="0 0 4 4" x="1416" y="1160" width="64" height="64" shape-rendering="auto"><path fill="#a63c3c" d="M2,3.75A1.75,1.75,0,0,0,2,.25H0v3.5Z"/></svg><svg viewBox="0 0 4 4" x="200" y="1224" width="64" height="64" shape-rendering="auto"><path fill="#a63c3c" d="M2,.25a1.75,1.75,0,0,0,0,3.5H4V.25Z"/></svg><svg viewBox="0 0 4 4" x="264" y="1224" width="64" height="64" shape-rendering="auto"><path fill="#a63c3c" d="M2,3.75A1.75,1.75,0,0,0,2,.25H0v3.5Z"/></svg><svg viewBox="0 0 4 4" x="392" y="1224" width="64" height="64" shape-rendering="auto"><circle fill="#a63c3c" cx="2" cy="2" r="1.75"/></svg><svg viewBox="0 0 4 4" x="520" y="1224" width="64" height="64" shape-rendering="auto"><path fill="#a63c3c" d="M2,.25a1.75,1.75,0,0,0,0,3.5H4V.25Z"/></svg><svg viewBox="0 0 4 4" x="584" y="1224" width="64" height="64" shape-rendering="auto"><path fill="#a63c3c" d="M2,3.75A1.75,1.75,0,0,0,2,.25H0v3.5Z"/></svg><svg viewBox="0 0 4 4" x="712" y="1224" width="64" height="64" shape-rendering="auto"><path fill="#a63c3c" d="M2,.25a1.75,1.75,0,0,0,0,3.5H4V.25Z"/></svg><svg viewBox="0 0 4 4" x="776" y="1224" width="64" height="64" shape-rendering="auto"><rect fill="#a63c3c" y="0.25" width="4" height="3.5"/></svg><svg viewBox="0 0 4 4" x="840" y="1224" width="64" height="64" shape-rendering="auto"><path fill="#a63c3c" d="M2,3.75A1.75,1.75,0,0,0,2,.25H0v3.5Z"/></svg><svg viewBox="0 0 4 4" x="968" y="1224" width="64" height="64" shape-rendering="auto"><path fill="#a63c3c" d="M2,.25a1.75,1.75,0,0,0,0,3.5H4V.25Z"/></svg><svg viewBox="0 0 4 4" x="1032" y="1224" width="64" height="64" shape-rendering="auto"><rect fill="#a63c3c" y="0.25" width="4" height="3.5"/></svg><svg viewBox="0 0 4 4" x="1096" y="1224" width="64" height="64" shape-rendering="auto"><path fill="#a63c3c" d="M2,3.75A1.75,1.75,0,0,0,2,.25H0v3.5Z"/></svg><svg viewBox="0 0 4 4" x="1224" y="1224" width="64" height="64" shape-rendering="auto"><path fill="#a63c3c" d="M2,.25a1.75,1.75,0,0,0,0,3.5H4V.25Z"/></svg><svg viewBox="0 0 4 4" x="1288" y="1224" width="64" height="64" shape-rendering="auto"><rect fill="#a63c3c" y="0.25" width="4" height="3.5"/></svg><svg viewBox="0 0 4 4" x="1352" y="1224" width="64" height="64" shape-rendering="auto"><rect fill="#a63c3c" y="0.25" width="4" height="3.5"/></svg><svg viewBox="0 0 4 4" x="1416" y="1224" width="64" height="64" shape-rendering="auto"><rect fill="#a63c3c" y="0.25" width="4" height="3.5"/></svg><svg viewBox="0 0 4 4" x="1480" y="1224" width="64" height="64" shape-rendering="auto"><path fill="#a63c3c" d="M2,3.75A1.75,1.75,0,0,0,2,.25H0v3.5Z"/></svg><svg viewBox="0 0 4 4" x="1736" y="1224" width="64" height="64" shape-rendering="auto"><circle fill="#a63c3c" cx="2" cy="2" r="1.75"/></svg><svg viewBox="0 0 4 4" x="712" y="1288" width="64" height="64" shape-rendering="auto"><circle fill="#a63c3c" cx="2" cy="2" r="1.75"/></svg><svg viewBox="0 0 4 4" x="968" y="1288" width="64" height="64" shape-rendering="auto"><path fill="#a63c3c" d="M2,.25a1.75,1.75,0,0,0,0,3.5H4V.25Z"/></svg><svg viewBox="0 0 4 4" x="1032" y="1288" width="64" height="64" shape-rendering="auto"><path fill="#a63c3c" d="M2,3.75A1.75,1.75,0,0,0,2,.25H0v3.5Z"/></svg><svg viewBox="0 0 4 4" x="1224" y="1288" width="64" height="64" shape-rendering="auto"><circle fill="#a63c3c" cx="2" cy="2" r="1.75"/></svg><svg viewBox="0 0 4 4" x="1480" y="1288" width="64" height="64" shape-rendering="auto"><circle fill="#a63c3c" cx="2" cy="2" r="1.75"/></svg><svg viewBox="0 0 4 4" x="712" y="1352" width="64" height="64" shape-rendering="auto"><circle fill="#a63c3c" cx="2" cy="2" r="1.75"/></svg><svg viewBox="0 0 4 4" x="904" y="1352" width="64" height="64" shape-rendering="auto"><path fill="#a63c3c" d="M2,.25a1.75,1.75,0,0,0,0,3.5H4V.25Z"/></svg><svg viewBox="0 0 4 4" x="968" y="1352" width="64" height="64" shape-rendering="auto"><rect fill="#a63c3c" y="0.25" width="4" height="3.5"/></svg><svg viewBox="0 0 4 4" x="1032" y="1352" width="64" height="64" shape-rendering="auto"><rect fill="#a63c3c" y="0.25" width="4" height="3.5"/></svg><svg viewBox="0 0 4 4" x="1096" y="1352" width="64" height="64" shape-rendering="auto"><rect fill="#a63c3c" y="0.25" width="4" height="3.5"/></svg><svg viewBox="0 0 4 4" x="1160" y="1352" width="64" height="64" shape-rendering="auto"><rect fill="#a63c3c" y="0.25" width="4" height="3.5"/></svg><svg viewBox="0 0 4 4" x="1224" y="1352" width="64" height="64" shape-rendering="auto"><path fill="#a63c3c" d="M2,3.75A1.75,1.75,0,0,0,2,.25H0v3.5Z"/></svg><svg viewBox="0 0 4 4" x="1352" y="1352" width="64" height="64" shape-rendering="auto"><circle fill="#a63c3c" cx="2" cy="2" r="1.75"/></svg><svg viewBox="0 0 4 4" x="1480" y="1352" width="64" height="64" shape-rendering="auto"><path fill="#a63c3c" d="M2,.25a1.75,1.75,0,0,0,0,3.5H4V.25Z"/></svg><svg viewBox="0 0 4 4" x="1544" y="1352" width="64" height="64" shape-rendering="auto"><path fill="#a63c3c" d="M2,3.75A1.75,1.75,0,0,0,2,.25H0v3.5Z"/></svg><svg viewBox="0 0 4 4" x="1672" y="1352" width="64" height="64" shape-rendering="auto"><path fill="#a63c3c" d="M2,.25a1.75,1.75,0,0,0,0,3.5H4V.25Z"/></svg><svg viewBox="0 0 4 4" x="1736" y="1352" width="64" height="64" shape-rendering="auto"><path fill="#a63c3c" d="M2,3.75A1.75,1.75,0,0,0,2,.25H0v3.5Z"/></svg><svg viewBox="0 0 4 4" x="776" y="1416" width="64" height="64" shape-rendering="auto"><path fill="#a63c3c" d="M2,.25a1.75,1.75,0,0,0,0,3.5H4V.25Z"/></svg><svg viewBox="0 0 4 4" x="840" y="1416" width="64" height="64" shape-rendering="auto"><path fill="#a63c3c" d="M2,3.75A1.75,1.75,0,0,0,2,.25H0v3.5Z"/></svg><svg viewBox="0 0 4 4" x="968" y="1416" width="64" height="64" shape-rendering="auto"><path fill="#a63c3c" d="M2,.25a1.75,1.75,0,0,0,0,3.5H4V.25Z"/></svg><svg viewBox="0 0 4 4" x="1032" y="1416" width="64" height="64" shape-rendering="auto"><rect fill="#a63c3c" y="0.25" width="4" height="3.5"/></svg><svg viewBox="0 0 4 4" x="1096" y="1416" width="64" height="64" shape-rendering="auto"><path fill="#a63c3c" d="M2,3.75A1.75,1.75,0,0,0,2,.25H0v3.5Z"/></svg><svg viewBox="0 0 4 4" x="1224" y="1416" width="64" height="64" shape-rendering="auto"><circle fill="#a63c3c" cx="2" cy="2" r="1.75"/></svg><svg viewBox="0 0 4 4" x="1480" y="1416" width="64" height="64" shape-rendering="auto"><path fill="#a63c3c" d="M2,.25a1.75,1.75,0,0,0,0,3.5H4V.25Z"/></svg><svg viewBox="0 0 4 4" x="1544" y="1416" width="64" height="64" shape-rendering="auto"><rect fill="#a63c3c" y="0.25" width="4" height="3.5"/></svg><svg viewBox="0 0 4 4" x="1608" y="1416" width="64" height="64" shape-rendering="auto"><rect fill="#a63c3c" y="0.25" width="4" height="3.5"/></svg><svg viewBox="0 0 4 4" x="1672" y="1416" width="64" height="64" shape-rendering="auto"><rect fill="#a63c3c" y="0.25" width="4" height="3.5"/></svg><svg viewBox="0 0 4 4" x="1736" y="1416" width="64" height="64" shape-rendering="auto"><path fill="#a63c3c" d="M2,3.75A1.75,1.75,0,0,0,2,.25H0v3.5Z"/></svg><svg viewBox="0 0 4 4" x="776" y="1480" width="64" height="64" shape-rendering="auto"><path fill="#a63c3c" d="M2,.25a1.75,1.75,0,0,0,0,3.5H4V.25Z"/></svg><svg viewBox="0 0 4 4" x="840" y="1480" width="64" height="64" shape-rendering="auto"><path fill="#a63c3c" d="M2,3.75A1.75,1.75,0,0,0,2,.25H0v3.5Z"/></svg><svg viewBox="0 0 4 4" x="968" y="1480" width="64" height="64" shape-rendering="auto"><circle fill="#a63c3c" cx="2" cy="2" r="1.75"/></svg><svg viewBox="0 0 4 4" x="1160" y="1480" width="64" height="64" shape-rendering="auto"><path fill="#a63c3c" d="M2,.25a1.75,1.75,0,0,0,0,3.5H4V.25Z"/></svg><svg viewBox="0 0 4 4" x="1224" y="1480" width="64" height="64" shape-rendering="auto"><rect fill="#a63c3c" y="0.25" width="4" height="3.5"/></svg><svg viewBox="0 0 4 4" x="1288" y="1480" width="64" height="64" shape-rendering="auto"><rect fill="#a63c3c" y="0.25" width="4" height="3.5"/></svg><svg viewBox="0 0 4 4" x="1352" y="1480" width="64" height="64" shape-rendering="auto"><rect fill="#a63c3c" y="0.25" width="4" height="3.5"/></svg><svg viewBox="0 0 4 4" x="1416" y="1480" width="64" height="64" shape-rendering="auto"><rect fill="#a63c3c" y="0.25" width="4" height="3.5"/></svg><svg viewBox="0 0 4 4" x="1480" y="1480" width="64" height="64" shape-rendering="auto"><path fill="#a63c3c" d="M2,3.75A1.75,1.75,0,0,0,2,.25H0v3.5Z"/></svg><svg viewBox="0 0 4 4" x="1608" y="1480" width="64" height="64" shape-rendering="auto"><path fill="#a63c3c" d="M2,.25a1.75,1.75,0,0,0,0,3.5H4V.25Z"/></svg><svg viewBox="0 0 4 4" x="1672" y="1480" width="64" height="64" shape-rendering="auto"><path fill="#a63c3c" d="M2,3.75A1.75,1.75,0,0,0,2,.25H0v3.5Z"/></svg><svg viewBox="0 0 4 4" x="712" y="1544" width="64" height="64" shape-rendering="auto"><circle fill="#a63c3c" cx="2" cy="2" r="1.75"/></svg><svg viewBox="0 0 4 4" x="840" y="1544" width="64" height="64" shape-rendering="auto"><path fill="#a63c3c" d="M2,.25a1.75,1.75,0,0,0,0,3.5H4V.25Z"/></svg><svg viewBox="0 0 4 4" x="904" y="1544" width="64" height="64" shape-rendering="auto"><path fill="#a63c3c" d="M2,3.75A1.75,1.75,0,0,0,2,.25H0v3.5Z"/></svg><svg viewBox="0 0 4 4" x="1032" y="1544" width="64" height="64" shape-rendering="auto"><path fill="#a63c3c" d="M2,.25a1.75,1.75,0,0,0,0,3.5H4V.25Z"/></svg><svg viewBox="0 0 4 4" x="1096" y="1544" width="64" height="64" shape-rendering="auto"><rect fill="#a63c3c" y="0.25" width="4" height="3.5"/></svg><svg viewBox="0 0 4 4" x="1160" y="1544" width="64" height="64" shape-rendering="auto"><rect fill="#a63c3c" y="0.25" width="4" height="3.5"/></svg><svg viewBox="0 0 4 4" x="1224" y="1544" width="64" height="64" shape-rendering="auto"><rect fill="#a63c3c" y="0.25" width="4" height="3.5"/></svg><svg viewBox="0 0 4 4" x="1288" y="1544" width="64" height="64" shape-rendering="auto"><path fill="#a63c3c" d="M2,3.75A1.75,1.75,0,0,0,2,.25H0v3.5Z"/></svg><svg viewBox="0 0 4 4" x="1416" y="1544" width="64" height="64" shape-rendering="auto"><path fill="#a63c3c" d="M2,.25a1.75,1.75,0,0,0,0,3.5H4V.25Z"/></svg><svg viewBox="0 0 4 4" x="1480" y="1544" width="64" height="64" shape-rendering="auto"><path fill="#a63c3c" d="M2,3.75A1.75,1.75,0,0,0,2,.25H0v3.5Z"/></svg><svg viewBox="0 0 4 4" x="840" y="1608" width="64" height="64" shape-rendering="auto"><circle fill="#a63c3c" cx="2" cy="2" r="1.75"/></svg><svg viewBox="0 0 4 4" x="968" y="1608" width="64" height="64" shape-rendering="auto"><circle fill="#a63c3c" cx="2" cy="2" r="1.75"/></svg><svg viewBox="0 0 4 4" x="1096" y="1608" width="64" height="64" shape-rendering="auto"><path fill="#a63c3c" d="M2,.25a1.75,1.75,0,0,0,0,3.5H4V.25Z"/></svg><svg viewBox="0 0 4 4" x="1160" y="1608" width="64" height="64" shape-rendering="auto"><path fill="#a63c3c" d="M2,3.75A1.75,1.75,0,0,0,2,.25H0v3.5Z"/></svg><svg viewBox="0 0 4 4" x="1416" y="1608" width="64" height="64" shape-rendering="auto"><circle fill="#a63c3c" cx="2" cy="2" r="1.75"/></svg><svg viewBox="0 0 4 4" x="1544" y="1608" width="64" height="64" shape-rendering="auto"><path fill="#a63c3c" d="M2,.25a1.75,1.75,0,0,0,0,3.5H4V.25Z"/></svg><svg viewBox="0 0 4 4" x="1608" y="1608" width="64" height="64" shape-rendering="auto"><path fill="#a63c3c" d="M2,3.75A1.75,1.75,0,0,0,2,.25H0v3.5Z"/></svg><svg viewBox="0 0 4 4" x="1736" y="1608" width="64" height="64" shape-rendering="auto"><circle fill="#a63c3c" cx="2" cy="2" r="1.75"/></svg><svg viewBox="0 0 4 4" x="712" y="1672" width="64" height="64" shape-rendering="auto"><circle fill="#a63c3c" cx="2" cy="2" r="1.75"/></svg><svg viewBox="0 0 4 4" x="1032" y="1672" width="64" height="64" shape-rendering="auto"><circle fill="#a63c3c" cx="2" cy="2" r="1.75"/></svg><svg viewBox="0 0 4 4" x="1224" y="1672" width="64" height="64" shape-rendering="auto"><path fill="#a63c3c" d="M2,.25a1.75,1.75,0,0,0,0,3.5H4V.25Z"/></svg><svg viewBox="0 0 4 4" x="1288" y="1672" width="64" height="64" shape-rendering="auto"><path fill="#a63c3c" d="M2,3.75A1.75,1.75,0,0,0,2,.25H0v3.5Z"/></svg><svg viewBox="0 0 4 4" x="1544" y="1672" width="64" height="64" shape-rendering="auto"><circle fill="#a63c3c" cx="2" cy="2" r="1.75"/></svg><svg viewBox="0 0 4 4" x="1672" y="1672" width="64" height="64" shape-rendering="auto"><path fill="#a63c3c" d="M2,.25a1.75,1.75,0,0,0,0,3.5H4V.25Z"/></svg><svg viewBox="0 0 4 4" x="1736" y="1672" width="64" height="64" shape-rendering="auto"><path fill="#a63c3c" d="M2,3.75A1.75,1.75,0,0,0,2,.25H0v3.5Z"/></svg><svg viewBox="0 0 4 4" x="712" y="1736" width="64" height="64" shape-rendering="auto"><circle fill="#a63c3c" cx="2" cy="2" r="1.75"/></svg><svg viewBox="0 0 4 4" x="840" y="1736" width="64" height="64" shape-rendering="auto"><circle fill="#a63c3c" cx="2" cy="2" r="1.75"/></svg><svg viewBox="0 0 4 4" x="968" y="1736" width="64" height="64" shape-rendering="auto"><path fill="#a63c3c" d="M2,.25a1.75,1.75,0,0,0,0,3.5H4V.25Z"/></svg><svg viewBox="0 0 4 4" x="1032" y="1736" width="64" height="64" shape-rendering="auto"><path fill="#a63c3c" d="M2,3.75A1.75,1.75,0,0,0,2,.25H0v3.5Z"/></svg><svg viewBox="0 0 4 4" x="1224" y="1736" width="64" height="64" shape-rendering="auto"><circle fill="#a63c3c" cx="2" cy="2" r="1.75"/></svg><svg viewBox="0 0 4 4" x="1480" y="1736" width="64" height="64" shape-rendering="auto"><path fill="#a63c3c" d="M2,.25a1.75,1.75,0,0,0,0,3.5H4V.25Z"/></svg><svg viewBox="0 0 4 4" x="1544" y="1736" width="64" height="64" shape-rendering="auto"><path fill="#a63c3c" d="M2,3.75A1.75,1.75,0,0,0,2,.25H0v3.5Z"/></svg><svg viewBox="0 0 4 4" x="1672" y="1736" width="64" height="64" shape-rendering="auto"><path fill="#a63c3c" d="M2,.25a1.75,1.75,0,0,0,0,3.5H4V.25Z"/></svg><svg viewBox="0 0 4 4" x="1736" y="1736" width="64" height="64" shape-rendering="auto"><path fill="#a63c3c" d="M2,3.75A1.75,1.75,0,0,0,2,.25H0v3.5Z"/></svg><svg version="1.0" id="Ebene_1" x="200" y="200" width="448" height="448" viewBox="0 0 699.988 699.988" enable-background="new 0 0 699.988 699.988" xml:space="preserve" shape-rendering="auto">
<path fill="#a63c3c" d="M699.988,129.279l-29.287-29.281H670.7h-0.002l0,0h0.002l29.282-29.286v-0.001l0.003-0.003l0.003-41.427  L670.701,0h-41.423l0,0h-0.004l-29.291,29.289L570.696,0.003L529.275,0l-29.291,29.289L470.697,0.003L429.277,0l-29.292,29.29v0  L370.698,0.003L329.277,0l-29.29,29.289L270.7,0.003L229.278,0l-29.29,29.289L170.701,0.003L129.281,0L99.992,29.286L70.709,0.002  h-41.42L0.003,29.292L0,70.719L29.286,100h0.003L0.003,129.291L0,170.717l29.286,29.281h0.003l-29.286,29.29L0,270.715  l29.286,29.281h0.003l-29.286,29.29L0,370.713l29.286,29.281h0.003L0.003,429.285L0,470.711l29.286,29.281h0.003l-29.286,29.29  L0,570.709l29.286,29.281h0.001h0.002l0,0h-0.002L0.006,629.276v0.001l-0.003,0.003L0,670.707l29.286,29.281h41.423l0,0h0.005  l29.291-29.289l29.287,29.286l41.42,0.003l29.292-29.289l29.287,29.286l41.42,0.003l29.291-29.289l29.288,29.286l41.42,0.003  l29.291-29.289l29.288,29.286l41.42,0.003L500,670.699l29.287,29.286l41.421,0.003l29.287-29.286l29.283,29.284h41.42l29.287-29.29  l0.003-41.427l-29.287-29.281h-0.003l29.287-29.291l0.003-41.426l-29.287-29.281h-0.003l29.287-29.29l0.003-41.427l-29.287-29.281  h-0.003l29.287-29.29l0.003-41.427l-29.287-29.281h-0.003l29.287-29.291l0.003-41.426l-29.287-29.281h-0.003l29.287-29.29  L699.988,129.279z M629.278,199.996l-29.285,29.287l-0.004,41.42l29.289,29.291l-29.285,29.287l-0.004,41.421l29.289,29.29  l-29.285,29.287l-0.004,41.421l29.289,29.29l-29.285,29.287l-0.004,41.42l29.289,29.291l-29.285,29.286l-29.285-29.28l-41.427-0.004  L500,629.277v0.002l-29.291-29.285l-41.426-0.004l-29.282,29.287v0.002l-29.291-29.285l-41.426-0.004l-29.282,29.287v0.002  l-29.291-29.286l-41.426-0.003l-29.281,29.286v0.003l-29.292-29.286l-41.426-0.003l-29.281,29.286v0.003l-29.291-29.286h-0.002  l-0.003-0.003l29.286-29.287l0.003-41.421l-29.289-29.29l29.286-29.287l0.003-41.42l-29.289-29.291l29.286-29.287l0.003-41.421  l-29.289-29.29l29.286-29.287l0.003-41.421l-29.289-29.29l29.286-29.287l0.003-41.42L70.709,100l29.286-29.286l29.286,29.281  l41.426,0.003l29.281-29.286v-0.003l29.29,29.286l41.428,0.003l29.281-29.286v-0.003l29.29,29.286l41.427,0.003l29.281-29.286  v-0.002l29.292,29.286l41.426,0.003l29.281-29.286v-0.003l29.291,29.286l41.427,0.003l29.281-29.286v-0.003l29.291,29.286h0.001  l0.003,0.003l-29.285,29.287l-0.004,41.421L629.278,199.996z"/>
</svg>
<svg version="1.0" id="Ebene_1" x="200" y="200" width="448" height="448" viewBox="0 0 699.988 699.988" enable-background="new 0 0 699.988 699.988" xml:space="preserve" shape-rendering="auto">
<path fill="#a63c3c" d="M499.99,370.684v-41.434l-29.258-29.261l29.256-29.267V229.29l-29.287-29.289l-41.42-0.003l-29.289,29.295  l-29.288-29.292l-41.419-0.003l-29.29,29.295l-29.286-29.292l-41.42-0.003l-29.291,29.295v41.43l29.267,29.264l-29.266,29.268  v41.431l29.289,29.289l-29.29,29.294v41.429l29.291,29.291l41.426,0.003l29.28-29.292v-0.002l29.29,29.291l41.428,0.003  l29.279-29.292v-0.002l29.289,29.291l41.428,0.003l29.279-29.292v-41.432l-29.28-29.286h0.003L499.99,370.684z M399.992,270.724  v-0.003l29.266,29.264l-29.264,29.267l-29.258-29.261L399.992,270.724z M299.995,270.724v-0.003l29.266,29.264l-29.265,29.267  l-29.257-29.261L299.995,270.724z M270.713,399.978h0.003l29.28-29.294v-0.002l29.288,29.289l-29.289,29.293L270.713,399.978z   M370.711,399.978h0.004l29.279-29.294v-0.002l29.287,29.289l-29.289,29.293L370.711,399.978z"/>
</svg>
<svg version="1.0" id="Ebene_1" x="1352" y="200" width="448" height="448" viewBox="0 0 699.988 699.988" enable-background="new 0 0 699.988 699.988" xml:space="preserve" shape-rendering="auto">
<path fill="#a63c3c" d="M699.988,129.279l-29.287-29.281H670.7h-0.002l0,0h0.002l29.282-29.286v-0.001l0.003-0.003l0.003-41.427  L670.701,0h-41.423l0,0h-0.004l-29.291,29.289L570.696,0.003L529.275,0l-29.291,29.289L470.697,0.003L429.277,0l-29.292,29.29v0  L370.698,0.003L329.277,0l-29.29,29.289L270.7,0.003L229.278,0l-29.29,29.289L170.701,0.003L129.281,0L99.992,29.286L70.709,0.002  h-41.42L0.003,29.292L0,70.719L29.286,100h0.003L0.003,129.291L0,170.717l29.286,29.281h0.003l-29.286,29.29L0,270.715  l29.286,29.281h0.003l-29.286,29.29L0,370.713l29.286,29.281h0.003L0.003,429.285L0,470.711l29.286,29.281h0.003l-29.286,29.29  L0,570.709l29.286,29.281h0.001h0.002l0,0h-0.002L0.006,629.276v0.001l-0.003,0.003L0,670.707l29.286,29.281h41.423l0,0h0.005  l29.291-29.289l29.287,29.286l41.42,0.003l29.292-29.289l29.287,29.286l41.42,0.003l29.291-29.289l29.288,29.286l41.42,0.003  l29.291-29.289l29.288,29.286l41.42,0.003L500,670.699l29.287,29.286l41.421,0.003l29.287-29.286l29.283,29.284h41.42l29.287-29.29  l0.003-41.427l-29.287-29.281h-0.003l29.287-29.291l0.003-41.426l-29.287-29.281h-0.003l29.287-29.29l0.003-41.427l-29.287-29.281  h-0.003l29.287-29.29l0.003-41.427l-29.287-29.281h-0.003l29.287-29.291l0.003-41.426l-29.287-29.281h-0.003l29.287-29.29  L699.988,129.279z M629.278,199.996l-29.285,29.287l-0.004,41.42l29.289,29.291l-29.285,29.287l-0.004,41.421l29.289,29.29  l-29.285,29.287l-0.004,41.421l29.289,29.29l-29.285,29.287l-0.004,41.42l29.289,29.291l-29.285,29.286l-29.285-29.28l-41.427-0.004  L500,629.277v0.002l-29.291-29.285l-41.426-0.004l-29.282,29.287v0.002l-29.291-29.285l-41.426-0.004l-29.282,29.287v0.002  l-29.291-29.286l-41.426-0.003l-29.281,29.286v0.003l-29.292-29.286l-41.426-0.003l-29.281,29.286v0.003l-29.291-29.286h-0.002  l-0.003-0.003l29.286-29.287l0.003-41.421l-29.289-29.29l29.286-29.287l0.003-41.42l-29.289-29.291l29.286-29.287l0.003-41.421  l-29.289-29.29l29.286-29.287l0.003-41.421l-29.289-29.29l29.286-29.287l0.003-41.42L70.709,100l29.286-29.286l29.286,29.281  l41.426,0.003l29.281-29.286v-0.003l29.29,29.286l41.428,0.003l29.281-29.286v-0.003l29.29,29.286l41.427,0.003l29.281-29.286  v-0.002l29.292,29.286l41.426,0.003l29.281-29.286v-0.003l29.291,29.286l41.427,0.003l29.281-29.286v-0.003l29.291,29.286h0.001  l0.003,0.003l-29.285,29.287l-0.004,41.421L629.278,199.996z"/>
</svg>
<svg version="1.0" id="Ebene_1" x="1352" y="200" width="448" height="448" viewBox="0 0 699.988 699.988" enable-background="new 0 0 699.988 699.988" xml:space="preserve" shape-rendering="auto">
<path fill="#a63c3c" d="M499.99,370.684v-41.434l-29.258-29.261l29.256-29.267V229.29l-29.287-29.289l-41.42-0.003l-29.289,29.295  l-29.288-29.292l-41.419-0.003l-29.29,29.295l-29.286-29.292l-41.42-0.003l-29.291,29.295v41.43l29.267,29.264l-29.266,29.268  v41.431l29.289,29.289l-29.29,29.294v41.429l29.291,29.291l41.426,0.003l29.28-29.292v-0.002l29.29,29.291l41.428,0.003  l29.279-29.292v-0.002l29.289,29.291l41.428,0.003l29.279-29.292v-41.432l-29.28-29.286h0.003L499.99,370.684z M399.992,270.724  v-0.003l29.266,29.264l-29.264,29.267l-29.258-29.261L399.992,270.724z M299.995,270.724v-0.003l29.266,29.264l-29.265,29.267  l-29.257-29.261L299.995,270.724z M270.713,399.978h0.003l29.28-29.294v-0.002l29.288,29.289l-29.289,29.293L270.713,399.978z   M370.711,399.978h0.004l29.279-29.294v-0.002l29.287,29.289l-29.289,29.293L370.711,399.978z"/>
</svg>
<svg version="1.0" id="Ebene_1" x="200" y="1352" width="448" height="448" viewBox="0 0 699.988 699.988" enable-background="new 0 0 699.988 699.988" xml:space="preserve" shape-rendering="auto">
<path fill="#a63c3c" d="M699.988,129.279l-29.287-29.281H670.7h-0.002l0,0h0.002l29.282-29.286v-0.001l0.003-0.003l0.003-41.427  L670.701,0h-41.423l0,0h-0.004l-29.291,29.289L570.696,0.003L529.275,0l-29.291,29.289L470.697,0.003L429.277,0l-29.292,29.29v0  L370.698,0.003L329.277,0l-29.29,29.289L270.7,0.003L229.278,0l-29.29,29.289L170.701,0.003L129.281,0L99.992,29.286L70.709,0.002  h-41.42L0.003,29.292L0,70.719L29.286,100h0.003L0.003,129.291L0,170.717l29.286,29.281h0.003l-29.286,29.29L0,270.715  l29.286,29.281h0.003l-29.286,29.29L0,370.713l29.286,29.281h0.003L0.003,429.285L0,470.711l29.286,29.281h0.003l-29.286,29.29  L0,570.709l29.286,29.281h0.001h0.002l0,0h-0.002L0.006,629.276v0.001l-0.003,0.003L0,670.707l29.286,29.281h41.423l0,0h0.005  l29.291-29.289l29.287,29.286l41.42,0.003l29.292-29.289l29.287,29.286l41.42,0.003l29.291-29.289l29.288,29.286l41.42,0.003  l29.291-29.289l29.288,29.286l41.42,0.003L500,670.699l29.287,29.286l41.421,0.003l29.287-29.286l29.283,29.284h41.42l29.287-29.29  l0.003-41.427l-29.287-29.281h-0.003l29.287-29.291l0.003-41.426l-29.287-29.281h-0.003l29.287-29.29l0.003-41.427l-29.287-29.281  h-0.003l29.287-29.29l0.003-41.427l-29.287-29.281h-0.003l29.287-29.291l0.003-41.426l-29.287-29.281h-0.003l29.287-29.29  L699.988,129.279z M629.278,199.996l-29.285,29.287l-0.004,41.42l29.289,29.291l-29.285,29.287l-0.004,41.421l29.289,29.29  l-29.285,29.287l-0.004,41.421l29.289,29.29l-29.285,29.287l-0.004,41.42l29.289,29.291l-29.285,29.286l-29.285-29.28l-41.427-0.004  L500,629.277v0.002l-29.291-29.285l-41.426-0.004l-29.282,29.287v0.002l-29.291-29.285l-41.426-0.004l-29.282,29.287v0.002  l-29.291-29.286l-41.426-0.003l-29.281,29.286v0.003l-29.292-29.286l-41.426-0.003l-29.281,29.286v0.003l-29.291-29.286h-0.002  l-0.003-0.003l29.286-29.287l0.003-41.421l-29.289-29.29l29.286-29.287l0.003-41.42l-29.289-29.291l29.286-29.287l0.003-41.421  l-29.289-29.29l29.286-29.287l0.003-41.421l-29.289-29.29l29.286-29.287l0.003-41.42L70.709,100l29.286-29.286l29.286,29.281  l41.426,0.003l29.281-29.286v-0.003l29.29,29.286l41.428,0.003l29.281-29.286v-0.003l29.29,29.286l41.427,0.003l29.281-29.286  v-0.002l29.292,29.286l41.426,0.003l29.281-29.286v-0.003l29.291,29.286l41.427,0.003l29.281-29.286v-0.003l29.291,29.286h0.001  l0.003,0.003l-29.285,29.287l-0.004,41.421L629.278,199.996z"/>
</svg>
<svg version="1.0" id="Ebene_1" x="200" y="1352" width="448" height="448" viewBox="0 0 699.988 699.988" enable-background="new 0 0 699.988 699.988" xml:space="preserve" shape-rendering="auto">
<path fill="#a63c3c" d="M499.99,370.684v-41.434l-29.258-29.261l29.256-29.267V229.29l-29.287-29.289l-41.42-0.003l-29.289,29.295  l-29.288-29.292l-41.419-0.003l-29.29,29.295l-29.286-29.292l-41.42-0.003l-29.291,29.295v41.43l29.267,29.264l-29.266,29.268  v41.431l29.289,29.289l-29.29,29.294v41.429l29.291,29.291l41.426,0.003l29.28-29.292v-0.002l29.29,29.291l41.428,0.003  l29.279-29.292v-0.002l29.289,29.291l41.428,0.003l29.279-29.292v-41.432l-29.28-29.286h0.003L499.99,370.684z M399.992,270.724  v-0.003l29.266,29.264l-29.264,29.267l-29.258-29.261L399.992,270.724z M299.995,270.724v-0.003l29.266,29.264l-29.265,29.267  l-29.257-29.261L299.995,270.724z M270.713,399.978h0.003l29.28-29.294v-0.002l29.288,29.289l-29.289,29.293L270.713,399.978z   M370.711,399.978h0.004l29.279-29.294v-0.002l29.287,29.289l-29.289,29.293L370.711,399.978z"/>
</svg>
</svg>

</svg>
